<svg width="1121" height="917" viewBox="0 0 1121 917" fill="none" xmlns="http://www.w3.org/2000/svg">
<rect width="1121" height="917" fill="#1A1A1A"/>
<path d="M1079 617.27C1004.85 572.869 956.036 554.139 859.467 528.86C913.687 553.287 944.618 564.832 994.81 605.553C923.467 630.626 883.741 646.797 813.642 681.181L812.859 681.482C728.55 713.828 680.025 732.446 589.847 684.377C673.931 742.428 725.379 760.919 889.307 689.703C957.859 653.963 998.311 636.639 1079 617.27Z" fill="#BDECB6"/>
<path d="M57 620.466C157.684 563.985 205.091 546.255 279.73 529.925C205.022 565.096 161.429 585.974 143.321 613.009C215.685 632.355 257.018 649.525 333.015 688.637C454.544 733.634 490.196 718.176 550.416 684.377C464.466 743.105 411.82 768.852 234.971 681.181C170.094 649.593 130.112 638.028 57 620.466Z" fill="#BDECB6"/>
<path d="M223.248 305.17C307.159 314.307 357.198 335.078 448.11 380.799C386.673 362.603 352.439 350.016 289.321 350.973C330.299 452.494 348.05 498.97 363.92 524.599C422.396 630.606 457.925 649.766 520.577 660.943C410.992 658.545 363.045 623.496 309.569 493.708C288.127 416.492 266.658 375.963 223.248 305.17Z" fill="#BDECB6"/>
<path d="M842.416 501.165C789.4 625.171 740.827 653.654 635.672 664.138C723.418 645.727 763.299 616.102 800.854 493.708C820.278 431.919 836.06 401.626 867.993 350.973C839.917 345.066 792.838 357.832 709.759 380.359L708.139 380.799C784.075 339.431 833.02 322.15 933 303.04C887.659 375.369 865.354 417.496 842.416 501.165Z" fill="#BDECB6"/>
<path d="M401.219 221.021C393.731 233.99 392.325 274.862 393.759 324.344C400.052 295.023 403.466 281.011 408.679 275.345C444.676 325.737 463.308 350.399 480.08 356.299C447.508 303.74 430.951 275.646 401.219 221.021Z" fill="#BDECB6"/>
<path d="M761.423 326.474C763.628 270.531 761.637 246.813 751.832 218.89C727.259 273.684 707.631 305.359 674.036 361.625C701.647 337.511 716.863 319.967 743.307 277.476C752.879 290.266 756.241 302.531 761.423 326.474Z" fill="#BDECB6"/>
<path d="M570.664 188C593.504 264.051 607.465 306.072 652.723 370.147C693.769 431.671 701.182 489.364 694.285 541.642C682.605 600.033 659.878 616.701 638.869 630.052C685.973 573.142 682.451 532.982 650.591 454.297C612.774 390.497 593.683 353.147 567.467 280.671C550.312 339.616 535.892 370.047 504.591 421.276C452.104 520.448 449.323 566.644 498.197 630.052C428.154 572.769 412.777 481.624 498.197 350.973C536.061 290.388 549.846 254.04 570.664 188Z" fill="#BDECB6"/>
<path d="M1079 617.27C1004.85 572.869 956.036 554.139 859.467 528.86C913.687 553.287 944.618 564.832 994.81 605.553C923.467 630.626 883.741 646.797 813.642 681.181L812.859 681.482C728.55 713.828 680.025 732.446 589.847 684.377C673.931 742.428 725.379 760.919 889.307 689.703C957.859 653.963 998.311 636.639 1079 617.27Z" stroke="#BDECB6"/>
<path d="M57 620.466C157.684 563.985 205.091 546.255 279.73 529.925C205.022 565.096 161.429 585.974 143.321 613.009C215.685 632.355 257.018 649.525 333.015 688.637C454.544 733.634 490.196 718.176 550.416 684.377C464.466 743.105 411.82 768.852 234.971 681.181C170.094 649.593 130.112 638.028 57 620.466Z" stroke="#BDECB6"/>
<path d="M223.248 305.17C307.159 314.307 357.198 335.078 448.11 380.799C386.673 362.603 352.439 350.016 289.321 350.973C330.299 452.494 348.05 498.97 363.92 524.599C422.396 630.606 457.925 649.766 520.577 660.943C410.992 658.545 363.045 623.496 309.569 493.708C288.127 416.492 266.658 375.963 223.248 305.17Z" stroke="#BDECB6"/>
<path d="M842.416 501.165C789.4 625.171 740.827 653.654 635.672 664.138C723.418 645.727 763.299 616.102 800.854 493.708C820.278 431.919 836.06 401.626 867.993 350.973C839.917 345.066 792.838 357.832 709.759 380.359L708.139 380.799C784.075 339.431 833.02 322.15 933 303.04C887.659 375.369 865.354 417.496 842.416 501.165Z" stroke="#BDECB6"/>
<path d="M401.219 221.021C393.731 233.99 392.325 274.862 393.759 324.344C400.052 295.023 403.466 281.011 408.679 275.345C444.676 325.737 463.308 350.399 480.08 356.299C447.508 303.74 430.951 275.646 401.219 221.021Z" stroke="#BDECB6"/>
<path d="M761.423 326.474C763.628 270.531 761.637 246.813 751.832 218.89C727.259 273.684 707.631 305.359 674.036 361.625C701.647 337.511 716.863 319.967 743.307 277.476C752.879 290.266 756.241 302.531 761.423 326.474Z" stroke="#BDECB6"/>
<path d="M570.664 188C593.504 264.051 607.465 306.072 652.723 370.147C693.769 431.671 701.182 489.364 694.285 541.642C682.605 600.033 659.878 616.701 638.869 630.052C685.973 573.142 682.451 532.982 650.591 454.297C612.774 390.497 593.683 353.147 567.467 280.671C550.312 339.616 535.892 370.047 504.591 421.276C452.104 520.448 449.323 566.644 498.197 630.052C428.154 572.769 412.777 481.624 498.197 350.973C536.061 290.388 549.846 254.04 570.664 188Z" stroke="#BDECB6"/>
</svg>
